{"title":"Amnesiac 2015 Movies DVDRip XviD AAC New Source with Sample â˜»rDX","uid":12228938,"size":740081765,"categoryP":"video","categoryS":"movies","magnet":"?xt=urn:btih:063bdfe68c06b8f0f60cd224830969edbb49c57d&amp;dn=Amnesiac+2015+Movies+DVDRip+XviD+AAC+New+Source+with+Sample+%E2%98%BBrDX&amp;tr=udp%3A%2F%2Ftracker.openbittorrent.com%3A80&amp;tr=udp%3A%2F%2Fopen.demonii.com%3A1337&amp;tr=udp%3A%2F%2Ftracker.coppersurfer.tk%3A6969&amp;tr=udp%3A%2F%2Fexodus.desync.com%3A6969","seeders":3,"leechers":2,"uploader":"basicssom","files":2,"time":1439529487,"description":"----------------------------------------------------------------\nAmnesiac 2015 English Movies DVDRip XviD AAC New Source with Sample ~ â˜»rDXâ˜»\n\nSCREEN SHOTS &amp; POSTER:\n &lt;a href=&quot;\nhttp://imagehosting4u.com/2015/8/Amnesiac/11.html&quot; rel=&quot;nofollow&quot; target=&quot;_NEW&quot;&gt;\nhttp://imagehosting4u.com/2015/8/Amnesiac/11.html&lt;/a&gt; &lt;a href=&quot;\nhttp://imagehosting4u.com/2015/8/Amnesiac/1.html&quot; rel=&quot;nofollow&quot; target=&quot;_NEW&quot;&gt;\nhttp://imagehosting4u.com/2015/8/Amnesiac/1.html&lt;/a&gt; &lt;a href=&quot;\nhttp://imagehosting4u.com/2015/8/Amnesiac/2.html&quot; rel=&quot;nofollow&quot; target=&quot;_NEW&quot;&gt;\nhttp://imagehosting4u.com/2015/8/Amnesiac/2.html&lt;/a&gt; &lt;a href=&quot;\nhttp://imagehosting4u.com/2015/8/Amnesiac/3.html&quot; rel=&quot;nofollow&quot; target=&quot;_NEW&quot;&gt;\nhttp://imagehosting4u.com/2015/8/Amnesiac/3.html&lt;/a&gt; &lt;a href=&quot;\nhttp://imagehosting4u.com/2015/8/Amnesiac/4.html&quot; rel=&quot;nofollow&quot; target=&quot;_NEW&quot;&gt;\nhttp://imagehosting4u.com/2015/8/Amnesiac/4.html&lt;/a&gt; &lt;a href=&quot;\nhttp://imagehosting4u.com/2015/8/Amnesiac/5.html&quot; rel=&quot;nofollow&quot; target=&quot;_NEW&quot;&gt;\nhttp://imagehosting4u.com/2015/8/Amnesiac/5.html&lt;/a&gt; &lt;a href=&quot;\nhttp://imagehosting4u.com/2015/8/Amnesiac/6.html&quot; rel=&quot;nofollow&quot; target=&quot;_NEW&quot;&gt;\nhttp://imagehosting4u.com/2015/8/Amnesiac/6.html&lt;/a&gt; &lt;a href=&quot;\nhttp://imagehosting4u.com/2015/8/Amnesiac/7.html&quot; rel=&quot;nofollow&quot; target=&quot;_NEW&quot;&gt;\nhttp://imagehosting4u.com/2015/8/Amnesiac/7.html&lt;/a&gt; &lt;a href=&quot;\nhttp://imagehosting4u.com/2015/8/Amnesiac/8.html&quot; rel=&quot;nofollow&quot; target=&quot;_NEW&quot;&gt;\nhttp://imagehosting4u.com/2015/8/Amnesiac/8.html&lt;/a&gt; &lt;a href=&quot;\nhttp://imagehosting4u.com/2015/8/Amnesiac/9.html&quot; rel=&quot;nofollow&quot; target=&quot;_NEW&quot;&gt;\nhttp://imagehosting4u.com/2015/8/Amnesiac/9.html&lt;/a&gt; &lt;a href=&quot;\nhttp://imagehosting4u.com/2015/8/Amnesiac/10.html&quot; rel=&quot;nofollow&quot; target=&quot;_NEW&quot;&gt;\nhttp://imagehosting4u.com/2015/8/Amnesiac/10.html&lt;/a&gt;\n\nFormat                                   : Matroska\nFormat version                           : Version 4 / Version 2\nFile size                                : 698 MiB\nDuration                                 : 1h 24mn\nOverall bit rate                         : 1 158 Kbps\nMovie name                               : Amnesiac 2015 English Movies DVDRip XviD AAC New Source ~ rDX ~\n\nVideo\nID                                       : 1\nFormat                                   : AVC\nFormat/Info                              : Advanced Video Codec\nFormat profile                           : &lt;a class=&quot;__cf_email__&quot; href=&quot;/cdn-cgi/l/email-protection&quot; data-cfemail=&quot;d79fbeb0bf979be4f9e7&quot;&gt;[email&amp;#160;protected]&lt;/a&gt;&lt;script data-cfhash='f9e31' type=&quot;text/javascript&quot;&gt;\n/* &lt;![CDATA[ */!function(){try{var t=&quot;currentScript&quot;in document?document.currentScript:function(){for(var t=document.getElementsByTagName(&quot;script&quot;),e=t.length;e--;)if(t[e].getAttribute(&quot;data-cfhash&quot;))return t[e]}();if(t&amp;&amp;t.previousSibling){var e,r,n,i,c=t.previousSibling,a=c.getAttribute(&quot;data-cfemail&quot;);if(a){for(e=&quot;&quot;,r=parseInt(a.substr(0,2),16),n=2;a.length-n;n+=2)i=parseInt(a.substr(n,2),16)^r,e+=String.fromCharCode(i);e=document.createTextNode(e),c.parentNode.replaceChild(e,c)}t.parentNode.removeChild(t);}}catch(u){}}()/* ]]&gt; */&lt;/script&gt;\nFormat settings, CABAC                   : Yes\nFormat settings, ReFrames                : 3 frames\nCodec ID                                 : V_MPEG4/ISO/AVC\nDuration                                 : 1h 24mn\nBit rate                                 : 751 Kbps\nWidth                                    : 704 pixels\nHeight                                   : 400 pixels\nDisplay aspect ratio                     : 16:9\nFrame rate mode                          : Constant\nFrame rate                               : 23.976 fps\nColor space                              : YUV\nChroma subsampling                       : 4:2:0\nBit depth                                : 8 bits\nScan type                                : Progressive\nBits/(Pixel*Frame)                       : 0.111\nStream size                              : 453 MiB (65%)\nTitle                                    : ~ rDX ~\nWriting library                          : XviD\nForced                                   : No\n\nAudio\nID                                       : 2\nFormat                                   : AC-3\nFormat/Info                              : Audio Coding 3\nMode extension                           : CM (complete main)\nFormat settings, Endianness              : Big\nCodec ID                                 : A_AC3\nDuration                                 : 1h 24mn\nBit rate mode                            : Constant\nBit rate                                 : 384 Kbps\nChannel(s)                               : 6 channels\nChannel positions                        : Front: L C R, Side: L R, LFE\nSampling rate                            : 48.0 KHz\nBit depth                                : 16 bits\nCompression mode                         : Lossy\nStream size                              : 232 MiB (33%)\nTitle                                    : ~ rDX ~\nDefault                                  : Yes\nForced                                   : No","torrent":{"xt":"urn:btih:063bdfe68c06b8f0f60cd224830969edbb49c57d","amp;dn":"Amnesiac+2015+Movies+DVDRip+XviD+AAC+New+Source+with+Sample+%E2%98%BBrDX","amp;tr":["udp%3A%2F%2Ftracker.openbittorrent.com%3A80","udp%3A%2F%2Fopen.demonii.com%3A1337","udp%3A%2F%2Ftracker.coppersurfer.tk%3A6969","udp%3A%2F%2Fexodus.desync.com%3A6969"],"infoHash":"063bdfe68c06b8f0f60cd224830969edbb49c57d","infoHashBuffer":{"type":"Buffer","data":[6,59,223,230,140,6,184,240,246,12,210,36,131,9,105,237,187,73,197,125]},"announce":[],"urlList":[]}}